:FULLY-SPECIFIED
:FORCE-ALL-JOINTS-BE-3DOF
:DEGREES
130
root 9.09551 16.0727 -18.9476 5.74407 7.43514 4.92553
lfemur 17.1182 1.5006 -26.1485
ltibia 4.62825 -0 0
lfoot -13.5203 0.832464 0.205305
ltoes -7.37823 0 0
rfemur -42.0537 10.8556 6.16675
rtibia 24.7116 -0 0
rfoot -23.4297 -11.8553 0.131299
rtoes -21.5197 0 0
lowerback -8.1704 -3.70968 -5.96838
upperback -1.22068 -4.4904 2.22056
thorax 3.95215 -2.33796 5.13183
lowerneck -19.3164 -5.6389 -13.4888
upperneck 20.6174 -6.62226 11.3891
head 10.6829 -2.80631 5.37894
lclavicle -4.66828e-14 -1.57835e-14 -4.64118e-31
lhumerus -31.3263 -25.5422 97.2904
lradius 40.0106 -0 0
lwrist 10.3963 0 0
lhand -10.003 -23.7649 0.0507627
lfingers 7.12502 -0 0
lthumb 15.9786 5.56657 0.0399724
rclavicle -4.66828e-14 -1.57835e-14 -4.64118e-31
rhumerus -47.1637 6.82637 -82.465
rradius 33.288 -0 0
rwrist -18.0286 0 0
rhand -29.4809 -23.604 -0.00546878
rfingers 7.12502 -0 0
rthumb -2.81607 -53.5651 -0.00526777
131
root 9.06717 16.0887 -18.7298 5.80438 7.59412 4.80935
lfemur 16.8199 1.61552 -25.8219
ltibia 5.82069 -0 0
lfoot -13.0952 1.07501 0.246254
ltoes -7.55185 0 0
rfemur -41.8755 10.7028 6.52049
rtibia 24.653 -0 0
rfoot -23.2111 -11.5613 0.156952
rtoes -21.4427 0 0
lowerback -8.10157 -3.68303 -5.85292
upperback -1.23244 -4.46917 2.24897
thorax 3.89343 -2.32457 5.10133
lowerneck -19.2883 -5.68811 -13.5262
upperneck 20.4811 -6.69162 11.4597
head 10.6444 -2.83268 5.3978
lclavicle -4.6507e-14 -1.49196e-14 -5.82675e-31
lhumerus -31.7026 -25.3236 97.4001
lradius 39.7732 -0 0
lwrist 10.2912 0 0
lhand -9.74981 -23.6317 0.0605935
lfingers 7.12502 -0 0
lthumb 16.222 5.67427 0.04774
rclavicle -4.6507e-14 -1.49196e-14 -5.82675e-31
rhumerus -47.1691 6.84556 -82.4052
rradius 33.2304 -0 0
rwrist -18.0038 0 0
rhand -29.4305 -23.6712 -0.00669305
rfingers 7.12502 -0 0
rthumb -2.76746 -53.633 -0.00644432
132
root 9.03718 16.106 -18.5041 5.86577 7.74658 4.68385
lfemur 16.472 1.74204 -25.4778
ltibia 7.11334 -0 0
lfoot -12.6449 1.34201 0.287401
ltoes -7.7279 0 0
rfemur -41.6694 10.5295 6.90884
rtibia 24.6351 -0 0
rfoot -22.9716 -11.2512 0.1827
rtoes -21.3496 0 0
lowerback -8.02486 -3.65252 -5.72866
upperback -1.24533 -4.44383 2.27946
thorax 3.82816 -2.3089 5.06876
lowerneck -19.2624 -5.73842 -13.5638
upperneck 20.3357 -6.76257 11.5354
head 10.6035 -2.85919 5.41799
lclavicle -4.6297e-14 -1.39808e-14 -7.08751e-31
lhumerus -32.0924 -25.0781 97.5015
lradius 39.5067 -0 0
lwrist 10.1697 0 0
lhand -9.4803 -23.4892 0.0703441
lfingers 7.12502 -0 0
lthumb 16.4811 5.78981 0.0554518
rclavicle -4.6297e-14 -1.39808e-14 -7.08751e-31
rhumerus -47.1718 6.87337 -82.3494
rradius 33.1749 -0 0
rwrist -17.9806 0 0
rhand -29.378 -23.7416 -0.00795156
rfingers 7.12502 -0 0
rthumb -2.71671 -53.7042 -0.00765292
133
root 9.00569 16.1248 -18.2717 5.92805 7.89257 4.54958
lfemur 16.0767 1.87988 -25.1178
ltibia 8.49868 -0 0
lfoot -12.1717 1.63188 0.328106
ltoes -7.90615 0 0
rfemur -41.4367 10.3369 7.32936
rtibia 24.6552 -0 0
rfoot -22.7127 -10.9261 0.208183
rtoes -21.2414 0 0
lowerback -7.94079 -3.61834 -5.59613
upperback -1.25924 -4.41451 2.31188
thorax 3.7568 -2.29103 5.03425
lowerneck -19.2384 -5.78972 -13.6015
upperneck 20.1817 -6.8349 11.6156
head 10.5605 -2.88579 5.43943
lclavicle -4.60537e-14 -1.29724e-14 -8.40536e-31
lhumerus -32.4944 -24.8072 97.5943
lradius 39.2129 -0 0
lwrist 10.033 0 0
lhand -9.19593 -23.338 0.0798455
lfingers 7.12502 -0 0
lthumb 16.7544 5.91255 0.0629742
rclavicle -4.60537e-14 -1.29724e-14 -8.40536e-31
rhumerus -47.1718 6.90935 -82.2976
rradius 33.1219 -0 0
rwrist -17.9593 0 0
rhand -29.3235 -23.815 -0.00922484
rfingers 7.12502 -0 0
rthumb -2.66411 -53.7783 -0.00887478
134
root 8.97288 16.1447 -18.0337 5.99107 8.03211 4.40708
lfemur 15.6365 2.02873 -24.7435
ltibia 9.96918 -0 0
lfoot -11.6777 1.94302 0.367749
ltoes -8.08637 0 0
rfemur -41.1791 10.1258 7.7796
rtibia 24.7107 -0 0
rfoot -22.4359 -10.5872 0.233046
rtoes -21.1188 0 0
lowerback -7.8499 -3.5807 -5.45586
upperback -1.27408 -4.38133 2.34608
thorax 3.6798 -2.27106 4.9979
lowerneck -19.2162 -5.84188 -13.6393
upperneck 20.0198 -6.90841 11.7003
head 10.5155 -2.91246 5.46203
lclavicle -4.57778e-14 -1.19001e-14 -9.76171e-31
lhumerus -32.9072 -24.5127 97.6785
lradius 38.8939 -0 0
lwrist 9.88199 0 0
lhand -8.89814 -23.1789 0.0889364
lfingers 7.12502 -0 0
lthumb 17.0406 6.04186 0.0701798
rclavicle -4.57778e-14 -1.19001e-14 -9.76171e-31
rhumerus -47.1688 6.95302 -82.2496
rradius 33.0717 -0 0
rwrist -17.94 0 0
rhand -29.2674 -23.8913 -0.0104942
rfingers 7.12502 -0 0
rthumb -2.60995 -53.8553 -0.0100919
135
root 8.93893 16.1656 -17.7911 6.05467 8.16526 4.25691
lfemur 15.1539 2.18828 -24.3567
ltibia 11.5173 -0 0
lfoot -11.1652 2.27383 0.405735
ltoes -8.26836 0 0
rfemur -40.8979 9.89737 8.25713
rtibia 24.7989 -0 0
rfoot -22.1426 -10.2353 0.256952
rtoes -20.9827 0 0
lowerback -7.7527 -3.5398 -5.30839
upperback -1.28974 -4.34444 2.38192
thorax 3.59765 -2.24907 4.95982
lowerneck -19.1957 -5.89478 -13.6769
upperneck 19.8506 -6.98288 11.7889
head 10.4686 -2.93914 5.4857
lclavicle -4.54702e-14 -1.07693e-14 -1.11377e-30
lhumerus -33.3299 -24.1962 97.754
lradius 38.5513 -0 0
lwrist 9.71797 0 0
lhand -8.58835 -23.0126 0.0974661
lfingers 7.12502 -0 0
lthumb 17.3384 6.17708 0.0769493
rclavicle -4.54702e-14 -1.07693e-14 -1.11377e-30
rhumerus -47.1628 7.00394 -82.2052
rradius 33.0247 -0 0
rwrist -17.9228 0 0
rhand -29.21 -23.9702 -0.0117418
rfingers 7.12502 -0 0
rthumb -2.55451 -53.935 -0.0112871
136
root 8.90398 16.1876 -17.5451 6.11869 8.29204 4.09962
lfemur 14.631 2.35819 -23.959
ltibia 13.1355 -0 0
lfoot -10.6363 2.6227 0.441506
ltoes -8.45187 0 0
rfemur -40.5946 9.65253 8.7595
rtibia 24.9174 -0 0
rfoot -21.8343 -9.87173 0.279582
rtoes -20.8339 0 0
lowerback -7.64973 -3.49583 -5.15423
upperback -1.30612 -4.30396 2.41924
thorax 3.51078 -2.22517 4.92012
lowerneck -19.1768 -5.9483 -13.7146
upperneck 19.6748 -7.05812 11.8813
head 10.42 -2.9658 5.51037
lclavicle -4.51316e-14 -9.58546e-15 -1.25143e-30
lhumerus -33.761 -23.8594 97.8207
lradius 38.1872 -0 0
lwrist 9.54205 0 0
lhand -8.26799 -22.8401 0.105296
lfingers 7.12502 -0 0
lthumb 17.6463 6.31758 0.0831724
rclavicle -4.51316e-14 -9.58546e-15 -1.25143e-30
rhumerus -47.1537 7.06164 -82.1643
rradius 32.9812 -0 0
rwrist -17.9079 0 0
rhand -29.1516 -24.0515 -0.0129509
rfingers 7.12502 -0 0
rthumb -2.49807 -54.0171 -0.0124442
137
root 8.86822 16.2103 -17.2967 6.18298 8.41248 3.93574
lfemur 14.0704 2.53807 -23.5522
ltibia 14.8162 -0 0
lfoot -10.0932 2.988 0.474543
ltoes -8.63671 0 0
rfemur -40.2706 9.39232 9.28429
rtibia 25.0633 -0 0
rfoot -21.5126 -9.49746 0.300634
rtoes -20.6732 0 0
lowerback -7.54153 -3.449 -4.99393
upperback -1.32312 -4.26004 2.45789
thorax 3.41966 -2.19945 4.87892
lowerneck -19.1591 -6.00231 -13.7521
upperneck 19.493 -7.13392 11.9771
head 10.3698 -2.9924 5.53593
lclavicle -4.47628e-14 -8.35416e-15 -1.38725e-30
lhumerus -34.1997 -23.5039 97.8786
lradius 37.8033 -0 0
lwrist 9.35534 0 0
lhand -7.9385 -22.662 0.1123
lfingers 7.12502 -0 0
lthumb 17.963 6.4627 0.0887497
rclavicle -4.47628e-14 -8.35416e-15 -1.38725e-30
rhumerus -47.1415 7.12566 -82.1265
rradius 32.9417 -0 0
rwrist -17.8953 0 0
rhand -29.0924 -24.1351 -0.0141055
rfingers 7.12502 -0 0
rthumb -2.4409 -54.1015 -0.0135479
138
root 8.83182 16.2338 -17.047 6.24741 8.52662 3.76584
lfemur 13.4743 2.7275 -23.1377
ltibia 16.552 -0 0
lfoot -9.53832 3.36808 0.504372
ltoes -8.82263 0 0
rfemur -39.9274 9.1178 9.82908
rtibia 25.2341 -0 0
rfoot -21.1788 -9.1136 0.319833
rtoes -20.5016 0 0
lowerback -7.42861 -3.39948 -4.828
upperback -1.34063 -4.2128 2.49773
thorax 3.32476 -2.172 4.83633
lowerneck -19.1428 -6.0567 -13.7895
upperneck 19.3058 -7.21007 12.0761
head 10.3183 -3.0189 5.56232
lclavicle -4.43647e-14 -7.08087e-15 -1.51939e-30
lhumerus -34.6447 -23.1314 97.9279
lradius 37.4016 -0 0
lwrist 9.15899 0 0
lhand -7.60132 -22.4792 0.118368
lfingers 7.12502 -0 0
lthumb 18.287 6.61181 0.0935935
rclavicle -4.43647e-14 -7.08087e-15 -1.51939e-30
rhumerus -47.126 7.19554 -82.0919
rradius 32.9065 -0 0
rwrist -17.8852 0 0
rhand -29.0327 -24.2208 -0.0151912
rfingers 7.12502 -0 0
rthumb -2.3833 -54.188 -0.0145844
139
root 8.79493 16.2578 -16.797 6.31182 8.63447 3.59045
lfemur 12.8451 2.92602 -22.7174
ltibia 18.3353 -0 0
lfoot -8.97372 3.76131 0.53057
ltoes -9.00942 0 0
rfemur -39.5663 8.83005 10.3915
rtibia 25.4272 -0 0
rfoot -20.8345 -8.72125 0.336928
rtoes -20.3197 0 0
lowerback -7.31151 -3.34748 -4.65699
upperback -1.35856 -4.16238 2.53861
thorax 3.22652 -2.1429 4.79245
lowerneck -19.1275 -6.11133 -13.8266
upperneck 19.1139 -7.2864 12.1778
head 10.2655 -3.04526 5.58943
lclavicle -4.3938e-14 -5.77111e-15 -1.64601e-30
lhumerus -35.0949 -22.7437 97.9684
lradius 36.9839 -0 0
lwrist 8.95412 0 0
lhand -7.25787 -22.2925 0.123406
lfingers 7.12502 -0 0
lthumb 18.6171 6.76424 0.0976286
rclavicle -4.3938e-14 -5.77111e-15 -1.64601e-30
rhumerus -47.1072 7.27082 -82.0601
rradius 32.8759 -0 0
rwrist -17.8777 0 0
rhand -28.9729 -24.3084 -0.0161944
rfingers 7.12502 -0 0
rthumb -2.32554 -54.2764 -0.0155405
140
root 8.75774 16.2822 -16.548 6.37609 8.73608 3.41013
lfemur 12.1851 3.13308 -22.2928
ltibia 20.1585 -0 0
lfoot -8.40169 4.16602 0.552772
ltoes -9.19686 0 0
rfemur -39.1887 8.53017 10.9691
rtibia 25.64 -0 0
rfoot -20.4813 -8.3215 0.351699
rtoes -20.1284 0 0
lowerback -7.19077 -3.29317 -4.48143
upperback -1.3768 -4.10891 2.58038
thorax 3.12542 -2.11225 4.7474
lowerneck -19.1131 -6.16609 -13.8635
upperneck 18.9179 -7.3627 12.282
head 10.2116 -3.07144 5.61719
lclavicle -4.34836e-14 -4.43036e-15 -1.76535e-30
lhumerus -35.5493 -22.3423 98.0004
lradius 36.5521 -0 0
lwrist 8.74188 0 0
lhand -6.90959 -22.1025 0.127338
lfingers 7.12502 -0 0
lthumb 18.9518 6.91937 0.100794
rclavicle -4.34836e-14 -4.43036e-15 -1.76535e-30
rhumerus -47.0849 7.35105 -82.031
rradius 32.8504 -0 0
rwrist -17.873 0 0
rhand -28.9132 -24.3977 -0.0171029
rfingers 7.12502 -0 0
rthumb -2.2679 -54.3665 -0.0164048
